<mxfile host="app.diagrams.net" modified="2024-06-23T14:57:31.341Z" agent="Mozilla/5.0 (Windows NT 10.0; Win64; x64) AppleWebKit/537.36 (KHTML, like Gecko) Chrome/126.0.0.0 Safari/537.36" etag="dIvY7ge1mx7Oz0qjtrAJ" version="24.6.2" type="device">
  <diagram name="Strona-1" id="FFTAn1Aey9h0KW-IHrnl">
    <mxGraphModel dx="1290" dy="522" grid="1" gridSize="10" guides="1" tooltips="1" connect="1" arrows="1" fold="1" page="1" pageScale="1" pageWidth="827" pageHeight="1169" math="0" shadow="0">
      <root>
        <mxCell id="0" />
        <mxCell id="1" parent="0" />
        <mxCell id="s-T4bHBDybExXTd7HbpU-1" value="&lt;b&gt;package &lt;/b&gt;Presentation Diagram" style="shape=umlFrame;whiteSpace=wrap;html=1;pointerEvents=0;recursiveResize=0;container=1;collapsible=0;width=180;height=40;" parent="1" vertex="1">
          <mxGeometry x="150" y="110" width="670" height="430" as="geometry" />
        </mxCell>
        <mxCell id="s-T4bHBDybExXTd7HbpU-2" value="Bookswap home &amp;lt;&amp;lt;page&amp;gt;&amp;gt;" style="rounded=0;whiteSpace=wrap;html=1;" parent="s-T4bHBDybExXTd7HbpU-1" vertex="1">
          <mxGeometry x="40" y="80" width="180" height="20" as="geometry" />
        </mxCell>
        <mxCell id="s-T4bHBDybExXTd7HbpU-3" value="" style="rounded=0;whiteSpace=wrap;html=1;align=left;" parent="s-T4bHBDybExXTd7HbpU-1" vertex="1">
          <mxGeometry x="40" y="100" width="180" height="80" as="geometry" />
        </mxCell>
        <mxCell id="s-T4bHBDybExXTd7HbpU-7" value="Sign Up &amp;lt;&amp;lt;page&amp;gt;&amp;gt;" style="rounded=0;whiteSpace=wrap;html=1;" parent="s-T4bHBDybExXTd7HbpU-1" vertex="1">
          <mxGeometry x="40" y="200" width="180" height="20" as="geometry" />
        </mxCell>
        <mxCell id="s-T4bHBDybExXTd7HbpU-8" value="" style="rounded=0;whiteSpace=wrap;html=1;align=left;" parent="s-T4bHBDybExXTd7HbpU-1" vertex="1">
          <mxGeometry x="40" y="220" width="180" height="60" as="geometry" />
        </mxCell>
        <mxCell id="s-T4bHBDybExXTd7HbpU-9" value="email: Text&lt;div&gt;password: Text[2]&lt;/div&gt;&lt;div&gt;home: Anchor&lt;/div&gt;" style="text;html=1;align=left;verticalAlign=middle;whiteSpace=wrap;rounded=0;" parent="s-T4bHBDybExXTd7HbpU-1" vertex="1">
          <mxGeometry x="57" y="210" width="146" height="80" as="geometry" />
        </mxCell>
        <mxCell id="s-T4bHBDybExXTd7HbpU-10" value="" style="group" parent="s-T4bHBDybExXTd7HbpU-1" vertex="1" connectable="0">
          <mxGeometry x="250" y="80" width="180" height="130" as="geometry" />
        </mxCell>
        <mxCell id="s-T4bHBDybExXTd7HbpU-4" value="Offer &amp;lt;&amp;lt;page&amp;gt;&amp;gt;" style="rounded=0;whiteSpace=wrap;html=1;" parent="s-T4bHBDybExXTd7HbpU-10" vertex="1">
          <mxGeometry width="180" height="20" as="geometry" />
        </mxCell>
        <mxCell id="s-T4bHBDybExXTd7HbpU-5" value="" style="rounded=0;whiteSpace=wrap;html=1;align=left;" parent="s-T4bHBDybExXTd7HbpU-10" vertex="1">
          <mxGeometry y="20" width="180" height="100" as="geometry" />
        </mxCell>
        <mxCell id="s-T4bHBDybExXTd7HbpU-6" value="&lt;span style=&quot;&quot;&gt;title: Text&lt;/span&gt;&lt;div style=&quot;&quot;&gt;authon: Text&lt;/div&gt;&lt;div style=&quot;&quot;&gt;Description: Text&lt;/div&gt;&lt;div style=&quot;&quot;&gt;home: Anchor&lt;/div&gt;&lt;div style=&quot;&quot;&gt;exchange: Anchor&lt;/div&gt;" style="text;html=1;align=left;verticalAlign=middle;whiteSpace=wrap;rounded=0;" parent="s-T4bHBDybExXTd7HbpU-10" vertex="1">
          <mxGeometry x="17" y="10" width="146" height="120" as="geometry" />
        </mxCell>
        <mxCell id="s-T4bHBDybExXTd7HbpU-11" value="Sign In &amp;lt;&amp;lt;page&amp;gt;&amp;gt;" style="rounded=0;whiteSpace=wrap;html=1;" parent="s-T4bHBDybExXTd7HbpU-1" vertex="1">
          <mxGeometry x="250" y="230" width="180" height="20" as="geometry" />
        </mxCell>
        <mxCell id="s-T4bHBDybExXTd7HbpU-12" value="" style="rounded=0;whiteSpace=wrap;html=1;align=left;" parent="s-T4bHBDybExXTd7HbpU-1" vertex="1">
          <mxGeometry x="250" y="250" width="180" height="60" as="geometry" />
        </mxCell>
        <mxCell id="s-T4bHBDybExXTd7HbpU-13" value="user: Text&lt;div&gt;password: Text[2]&lt;/div&gt;&lt;div&gt;home: Anchor&lt;/div&gt;" style="text;html=1;align=left;verticalAlign=middle;whiteSpace=wrap;rounded=0;" parent="s-T4bHBDybExXTd7HbpU-1" vertex="1">
          <mxGeometry x="267" y="240" width="146" height="80" as="geometry" />
        </mxCell>
        <mxCell id="s-T4bHBDybExXTd7HbpU-16" value="Control Panel &amp;lt;&amp;lt;page&amp;gt;&amp;gt;" style="rounded=0;whiteSpace=wrap;html=1;" parent="s-T4bHBDybExXTd7HbpU-1" vertex="1">
          <mxGeometry x="470" y="80" width="180" height="20" as="geometry" />
        </mxCell>
        <mxCell id="s-T4bHBDybExXTd7HbpU-17" value="" style="rounded=0;whiteSpace=wrap;html=1;align=left;" parent="s-T4bHBDybExXTd7HbpU-1" vertex="1">
          <mxGeometry x="470" y="100" width="180" height="80" as="geometry" />
        </mxCell>
        <mxCell id="s-T4bHBDybExXTd7HbpU-18" value="problems: Text&lt;div&gt;status: Selection&lt;/div&gt;&lt;div&gt;activities_description: Text&lt;/div&gt;&lt;div&gt;home: Anchor&lt;/div&gt;" style="text;html=1;align=left;verticalAlign=middle;whiteSpace=wrap;rounded=0;" parent="s-T4bHBDybExXTd7HbpU-1" vertex="1">
          <mxGeometry x="487" y="90" width="146" height="100" as="geometry" />
        </mxCell>
        <mxCell id="d8mSQE9EaVtLB4Qx-KYL-1" value="About Us &amp;lt;&amp;lt;page&amp;gt;&amp;gt;" style="rounded=0;whiteSpace=wrap;html=1;" vertex="1" parent="s-T4bHBDybExXTd7HbpU-1">
          <mxGeometry x="40" y="310" width="180" height="20" as="geometry" />
        </mxCell>
        <mxCell id="d8mSQE9EaVtLB4Qx-KYL-2" value="" style="rounded=0;whiteSpace=wrap;html=1;align=left;" vertex="1" parent="s-T4bHBDybExXTd7HbpU-1">
          <mxGeometry x="40" y="330" width="180" height="60" as="geometry" />
        </mxCell>
        <mxCell id="d8mSQE9EaVtLB4Qx-KYL-3" value="text: Text&lt;div&gt;home: Anchor&lt;/div&gt;" style="text;html=1;align=left;verticalAlign=middle;whiteSpace=wrap;rounded=0;" vertex="1" parent="s-T4bHBDybExXTd7HbpU-1">
          <mxGeometry x="57" y="320" width="146" height="80" as="geometry" />
        </mxCell>
        <mxCell id="d8mSQE9EaVtLB4Qx-KYL-4" value="My Profile &amp;lt;&amp;lt;page&amp;gt;&amp;gt;" style="rounded=0;whiteSpace=wrap;html=1;" vertex="1" parent="s-T4bHBDybExXTd7HbpU-1">
          <mxGeometry x="460" y="220" width="180" height="20" as="geometry" />
        </mxCell>
        <mxCell id="d8mSQE9EaVtLB4Qx-KYL-5" value="" style="rounded=0;whiteSpace=wrap;html=1;align=left;" vertex="1" parent="s-T4bHBDybExXTd7HbpU-1">
          <mxGeometry x="460" y="240" width="180" height="60" as="geometry" />
        </mxCell>
        <mxCell id="d8mSQE9EaVtLB4Qx-KYL-6" value="books: List&lt;div&gt;image: Image&lt;/div&gt;&lt;div&gt;home: Anchor&lt;/div&gt;" style="text;html=1;align=left;verticalAlign=middle;whiteSpace=wrap;rounded=0;" vertex="1" parent="s-T4bHBDybExXTd7HbpU-1">
          <mxGeometry x="477" y="230" width="146" height="80" as="geometry" />
        </mxCell>
        <mxCell id="d8mSQE9EaVtLB4Qx-KYL-7" value="Exchange &amp;lt;&amp;lt;page&amp;gt;&amp;gt;" style="rounded=0;whiteSpace=wrap;html=1;" vertex="1" parent="s-T4bHBDybExXTd7HbpU-1">
          <mxGeometry x="250" y="330" width="180" height="20" as="geometry" />
        </mxCell>
        <mxCell id="d8mSQE9EaVtLB4Qx-KYL-8" value="" style="rounded=0;whiteSpace=wrap;html=1;align=left;" vertex="1" parent="s-T4bHBDybExXTd7HbpU-1">
          <mxGeometry x="250" y="350" width="180" height="60" as="geometry" />
        </mxCell>
        <mxCell id="d8mSQE9EaVtLB4Qx-KYL-9" value="text: Text&lt;div&gt;home: Anchor&lt;/div&gt;" style="text;html=1;align=left;verticalAlign=middle;whiteSpace=wrap;rounded=0;" vertex="1" parent="s-T4bHBDybExXTd7HbpU-1">
          <mxGeometry x="267" y="340" width="146" height="80" as="geometry" />
        </mxCell>
        <mxCell id="d8mSQE9EaVtLB4Qx-KYL-10" value="&lt;span style=&quot;&quot;&gt;about us: Anchor&lt;/span&gt;&lt;div style=&quot;&quot;&gt;sign ip: Anchor&lt;/div&gt;&lt;div style=&quot;&quot;&gt;offer: Anchor&lt;/div&gt;&lt;div style=&quot;&quot;&gt;my profile: Anchor&lt;/div&gt;" style="text;html=1;align=left;verticalAlign=middle;whiteSpace=wrap;rounded=0;" vertex="1" parent="s-T4bHBDybExXTd7HbpU-1">
          <mxGeometry x="57" y="100" width="140" height="80" as="geometry" />
        </mxCell>
      </root>
    </mxGraphModel>
  </diagram>
</mxfile>
